<svg version="1.1" xmlns="http://www.w3.org/2000/svg" viewBox="0 0 343 275" width="343" height="275">
  <!-- svg-source:excalidraw -->
  
  <defs>
    <style>
      @font-face {
        font-family: "Virgil";
        src: url("https://excalidraw.com/Virgil.woff2");
      }
      @font-face {
        font-family: "Cascadia";
        src: url("https://excalidraw.com/Cascadia.woff2");
      }
    </style>
  </defs>
  <g stroke-linecap="round" transform="translate(10 10) rotate(0 127.5 127.5)"><path d="M128 0 C172.56 44.91, 217.13 89.83, 255 128 M128 0 C176.62 49, 225.24 98, 255 128 M255 128 C212.7 170.3, 170.4 212.6, 128 255 M255 128 C222.65 160.35, 190.3 192.7, 128 255 M128 255 C78.4 205.79, 28.81 156.58, 0 128 M128 255 C91.97 219.26, 55.95 183.51, 0 128 M0 128 C41.4 86.6, 82.81 45.19, 128 0 M0 128 C41.41 86.59, 82.82 45.18, 128 0" stroke="#000000" stroke-width="2" fill="none"></path></g><g stroke-linecap="round" transform="translate(160 75) rotate(0 86.5 86.5)"><path d="M87 0 L173 87 L87 173 L0 87" stroke="none" stroke-width="0" fill="#ced4da" fill-rule="evenodd"></path><path d="M87 0 C106.89 20.12, 126.78 40.25, 173 87 M87 0 C113.12 26.43, 139.25 52.86, 173 87 M173 87 C150.06 109.94, 127.12 132.88, 87 173 M173 87 C148.37 111.63, 123.75 136.25, 87 173 M87 173 C68.56 154.77, 50.12 136.54, 0 87 M87 173 C65.6 151.85, 44.21 130.7, 0 87 M0 87 C28.33 58.67, 56.66 30.34, 87 0 M0 87 C31 56, 62 25, 87 0" stroke="#000000" stroke-width="2" fill="none"></path></g></svg>